# xmcd
#
# Track frame offsets: 
#        150
#        18494
#        32053
#        54865
#        79740
#        85710
#        100664
#        122796
#        135569
#        154364
#        174337
#
# Disc length: 2719 seconds
#
# Revision: 2
# Processed by: cddbd v1.5.2PL0 Copyright (c) Steve Scherf et al.
# Submitted via: ExactAudioCopyFreeDBPlugin 1.0
#
DISCID=7d0a9d0b
DTITLE=Magtens korridorer - Imperiet falder
DYEAR=2011
DGENRE=Progressive Rock
TTITLE0=Imperiet falder
TTITLE1=Kom og mærk
TTITLE2=Lyden af alarmer
TTITLE3=Horisonten
TTITLE4=Mit forkullede lig
TTITLE5=Pindsvinesjæl
TTITLE6=Gin -- Tonic
TTITLE7=Affald
TTITLE8=Alting til salg
TTITLE9=En anden tid
TTITLE10=Tæppet
EXTD=Universal UNI 2 778 746
EXTT0=
EXTT1=
EXTT2=
EXTT3=
EXTT4=
EXTT5=
EXTT6=
EXTT7=
EXTT8=
EXTT9=
EXTT10=
PLAYORDER=
